<svg width="105" height="32" viewBox="0 0 105 32" fill="none" xmlns="http://www.w3.org/2000/svg">
<path d="M23.5 19.5H13L8 24.5H18.5L23.5 19.5Z" fill="#CB0000"/>
<path d="M21.2178 10.7822L4 28M23.6775 19.3911H12.6089M9.65727 24.3105H17.943C18.2438 24.3105 18.3942 24.3105 18.5358 24.2765C18.6613 24.2464 18.7812 24.1967 18.8913 24.1292C19.0154 24.0532 19.1217 23.9468 19.3344 23.7341L25.5222 17.5464C25.8161 17.2525 25.963 17.1055 26.0813 16.9754C28.6396 14.161 28.6396 9.86314 26.0813 7.04871C25.963 6.91861 25.8161 6.77167 25.5222 6.47778C25.2283 6.1839 25.0814 6.03695 24.9513 5.9187C22.1369 3.36043 17.839 3.36043 15.0246 5.9187C14.8945 6.03695 14.7475 6.1839 14.4537 6.47778L8.26586 12.6656C8.05316 12.8783 7.94681 12.9846 7.87075 13.1087C7.80332 13.2188 7.75363 13.3387 7.7235 13.4642C7.68952 13.6058 7.68952 13.7562 7.68952 14.057V22.3427C7.68952 23.0315 7.68952 23.3759 7.82357 23.639C7.94148 23.8704 8.12962 24.0585 8.36103 24.1764C8.6241 24.3105 8.96849 24.3105 9.65727 24.3105Z" stroke="white" stroke-width="2" stroke-linecap="round" stroke-linejoin="round"/>
<path d="M42.875 18.5227H46.5568L47.8864 20.1932L50.1364 22.75L53.0682 26.2955H48.875L46.7955 23.875L45.3977 21.8636L42.875 18.5227ZM53.0341 16.2727C53.0341 18.2159 52.6563 19.8551 51.9006 21.1903C51.1449 22.5199 50.125 23.5284 48.8409 24.2159C47.5568 24.8977 46.125 25.2386 44.5455 25.2386C42.9545 25.2386 41.517 24.8949 40.233 24.2074C38.9545 23.5142 37.9375 22.5028 37.1818 21.1733C36.4318 19.8381 36.0568 18.2045 36.0568 16.2727C36.0568 14.3295 36.4318 12.6932 37.1818 11.3636C37.9375 10.0284 38.9545 9.01989 40.233 8.33807C41.517 7.65057 42.9545 7.30682 44.5455 7.30682C46.125 7.30682 47.5568 7.65057 48.8409 8.33807C50.125 9.01989 51.1449 10.0284 51.9006 11.3636C52.6563 12.6932 53.0341 14.3295 53.0341 16.2727ZM48.1591 16.2727C48.1591 15.2273 48.0199 14.3466 47.7415 13.6307C47.4688 12.9091 47.0625 12.3636 46.5227 11.9943C45.9886 11.6193 45.3295 11.4318 44.5455 11.4318C43.7614 11.4318 43.0994 11.6193 42.5597 11.9943C42.0256 12.3636 41.6193 12.9091 41.3409 13.6307C41.0682 14.3466 40.9318 15.2273 40.9318 16.2727C40.9318 17.3182 41.0682 18.2017 41.3409 18.9233C41.6193 19.6392 42.0256 20.1847 42.5597 20.5597C43.0994 20.929 43.7614 21.1136 44.5455 21.1136C45.3295 21.1136 45.9886 20.929 46.5227 20.5597C47.0625 20.1847 47.4688 19.6392 47.7415 18.9233C48.0199 18.2017 48.1591 17.3182 48.1591 16.2727ZM63.8068 19.2727V11.9091H68.5114V25H64.0455V22.5114H63.9091C63.625 23.3466 63.1278 24 62.4176 24.4716C61.7074 24.9375 60.8636 25.1705 59.8864 25.1705C58.9716 25.1705 58.1705 24.9602 57.483 24.5398C56.8011 24.1193 56.2699 23.5398 55.8892 22.8011C55.5142 22.0625 55.3239 21.2159 55.3182 20.2614V11.9091H60.0227V19.2727C60.0284 19.9205 60.1932 20.429 60.517 20.7983C60.8466 21.1676 61.3068 21.3523 61.8977 21.3523C62.2898 21.3523 62.6278 21.2699 62.9119 21.1051C63.2017 20.9347 63.4233 20.696 63.5767 20.3892C63.7358 20.0767 63.8125 19.7045 63.8068 19.2727ZM74.5518 25.2045C73.7166 25.2045 72.978 25.0682 72.3359 24.7955C71.6996 24.517 71.1996 24.0966 70.8359 23.5341C70.4723 22.9716 70.2905 22.2557 70.2905 21.3864C70.2905 20.6705 70.4126 20.0597 70.657 19.554C70.9013 19.0426 71.2422 18.625 71.6797 18.3011C72.1172 17.9773 72.6257 17.7301 73.2053 17.5597C73.7905 17.3892 74.4212 17.2784 75.0973 17.2273C75.8303 17.1705 76.4183 17.1023 76.8615 17.0227C77.3104 16.9375 77.6342 16.821 77.8331 16.6733C78.032 16.5199 78.1314 16.3182 78.1314 16.0682V16.0341C78.1314 15.6932 78.0007 15.4318 77.7393 15.25C77.478 15.0682 77.1428 14.9773 76.7337 14.9773C76.2848 14.9773 75.9183 15.0767 75.6342 15.2756C75.3558 15.4687 75.1882 15.767 75.1314 16.1705H70.8018C70.8587 15.375 71.1115 14.642 71.5604 13.9716C72.0149 13.2955 72.6768 12.7557 73.5462 12.3523C74.4155 11.9432 75.5007 11.7386 76.8018 11.7386C77.7393 11.7386 78.5803 11.8494 79.3246 12.071C80.0689 12.2869 80.7024 12.5909 81.2251 12.983C81.7479 13.3693 82.1456 13.8239 82.4183 14.3466C82.6967 14.8636 82.8359 15.4261 82.8359 16.0341V25H78.4382V23.1591H78.3359C78.0746 23.6477 77.7564 24.0426 77.3814 24.3438C77.0121 24.6449 76.5888 24.8636 76.1115 25C75.6399 25.1364 75.12 25.2045 74.5518 25.2045ZM76.0859 22.2386C76.4439 22.2386 76.7791 22.1648 77.0916 22.017C77.4098 21.8693 77.6683 21.6562 77.8672 21.3778C78.0661 21.0994 78.1655 20.7614 78.1655 20.3636V19.2727C78.0405 19.3239 77.907 19.3722 77.7649 19.4176C77.6286 19.4631 77.4808 19.5057 77.3217 19.5455C77.1683 19.5852 77.0036 19.6222 76.8274 19.6562C76.657 19.6903 76.478 19.7216 76.2905 19.75C75.9268 19.8068 75.6286 19.9006 75.3956 20.0312C75.1683 20.1562 74.9979 20.3125 74.8842 20.5C74.7763 20.6818 74.7223 20.8864 74.7223 21.1136C74.7223 21.4773 74.8501 21.7557 75.1058 21.9489C75.3615 22.142 75.6882 22.2386 76.0859 22.2386ZM85.0838 25V11.9091H89.7884V25H85.0838ZM87.4361 10.5455C86.7997 10.5455 86.2543 10.3352 85.7997 9.91477C85.3452 9.49432 85.1179 8.98864 85.1179 8.39773C85.1179 7.80682 85.3452 7.30114 85.7997 6.88068C86.2543 6.46023 86.7997 6.25 87.4361 6.25C88.0781 6.25 88.6236 6.46023 89.0724 6.88068C89.527 7.30114 89.7543 7.80682 89.7543 8.39773C89.7543 8.98864 89.527 9.49432 89.0724 9.91477C88.6236 10.3352 88.0781 10.5455 87.4361 10.5455ZM96.8899 7.54545V25H92.1854V7.54545H96.8899Z" fill="white"/>
</svg>
